<mxfile host="app.diagrams.net" modified="2021-12-16T21:00:17.613Z" agent="5.0 (Macintosh; Intel Mac OS X 10_15_7) AppleWebKit/537.36 (KHTML, like Gecko) Chrome/96.0.4664.110 Safari/537.36" etag="orxqWIr7CqcYL2v0cpzN" version="15.9.6" type="github">
  <diagram id="C5RBs43oDa-KdzZeNtuy" name="Page-1">
    <mxGraphModel dx="1018" dy="659" grid="1" gridSize="10" guides="1" tooltips="1" connect="1" arrows="1" fold="1" page="1" pageScale="1" pageWidth="827" pageHeight="1169" math="0" shadow="0">
      <root>
        <mxCell id="WIyWlLk6GJQsqaUBKTNV-0" />
        <mxCell id="WIyWlLk6GJQsqaUBKTNV-1" parent="WIyWlLk6GJQsqaUBKTNV-0" />
        <mxCell id="WIyWlLk6GJQsqaUBKTNV-2" value="" style="rounded=0;html=1;jettySize=auto;orthogonalLoop=1;fontSize=11;endArrow=block;endFill=0;endSize=8;strokeWidth=1;shadow=0;labelBackgroundColor=none;edgeStyle=orthogonalEdgeStyle;" parent="WIyWlLk6GJQsqaUBKTNV-1" source="WIyWlLk6GJQsqaUBKTNV-3" edge="1">
          <mxGeometry relative="1" as="geometry">
            <mxPoint x="220" y="170" as="targetPoint" />
          </mxGeometry>
        </mxCell>
        <mxCell id="WIyWlLk6GJQsqaUBKTNV-3" value="Step 1: Open a vault on Opyn." style="rounded=1;whiteSpace=wrap;html=1;fontSize=12;glass=0;strokeWidth=1;shadow=0;" parent="WIyWlLk6GJQsqaUBKTNV-1" vertex="1">
          <mxGeometry x="160" y="80" width="120" height="40" as="geometry" />
        </mxCell>
        <mxCell id="WIyWlLk6GJQsqaUBKTNV-12" value="Step 2a: Create the oToken that you will mint. Can be short or Long" style="rounded=1;whiteSpace=wrap;html=1;fontSize=12;glass=0;strokeWidth=1;shadow=0;fillColor=#e1d5e7;strokeColor=#9673a6;" parent="WIyWlLk6GJQsqaUBKTNV-1" vertex="1">
          <mxGeometry x="340" y="170" width="150" height="70" as="geometry" />
        </mxCell>
        <mxCell id="zztyvqkD1Ys9BvBLfRlU-4" value="" style="edgeStyle=orthogonalEdgeStyle;rounded=0;orthogonalLoop=1;jettySize=auto;html=1;" edge="1" parent="WIyWlLk6GJQsqaUBKTNV-1" source="zztyvqkD1Ys9BvBLfRlU-0" target="zztyvqkD1Ys9BvBLfRlU-3">
          <mxGeometry relative="1" as="geometry" />
        </mxCell>
        <mxCell id="zztyvqkD1Ys9BvBLfRlU-0" value="Step 2: Deposit collateral in said vault." style="rounded=1;whiteSpace=wrap;html=1;fontSize=12;glass=0;strokeWidth=1;shadow=0;" vertex="1" parent="WIyWlLk6GJQsqaUBKTNV-1">
          <mxGeometry x="160" y="170" width="120" height="60" as="geometry" />
        </mxCell>
        <mxCell id="zztyvqkD1Ys9BvBLfRlU-6" value="" style="edgeStyle=orthogonalEdgeStyle;rounded=0;orthogonalLoop=1;jettySize=auto;html=1;" edge="1" parent="WIyWlLk6GJQsqaUBKTNV-1" source="zztyvqkD1Ys9BvBLfRlU-3" target="zztyvqkD1Ys9BvBLfRlU-5">
          <mxGeometry relative="1" as="geometry" />
        </mxCell>
        <mxCell id="zztyvqkD1Ys9BvBLfRlU-3" value="Step 3: Mint the oToken" style="rounded=1;whiteSpace=wrap;html=1;glass=0;strokeWidth=1;shadow=0;" vertex="1" parent="WIyWlLk6GJQsqaUBKTNV-1">
          <mxGeometry x="160" y="280" width="120" height="60" as="geometry" />
        </mxCell>
        <mxCell id="zztyvqkD1Ys9BvBLfRlU-8" value="" style="edgeStyle=orthogonalEdgeStyle;rounded=0;orthogonalLoop=1;jettySize=auto;html=1;" edge="1" parent="WIyWlLk6GJQsqaUBKTNV-1" source="zztyvqkD1Ys9BvBLfRlU-5" target="zztyvqkD1Ys9BvBLfRlU-7">
          <mxGeometry relative="1" as="geometry" />
        </mxCell>
        <mxCell id="zztyvqkD1Ys9BvBLfRlU-5" value="Step 4: Sell the token on Gnosis Safe, Airswap, 0x, or Uniswap. Token is an &lt;br&gt;erc20" style="rounded=1;whiteSpace=wrap;html=1;glass=0;strokeWidth=1;shadow=0;" vertex="1" parent="WIyWlLk6GJQsqaUBKTNV-1">
          <mxGeometry x="160" y="390" width="120" height="80" as="geometry" />
        </mxCell>
        <mxCell id="zztyvqkD1Ys9BvBLfRlU-10" value="" style="edgeStyle=orthogonalEdgeStyle;rounded=0;orthogonalLoop=1;jettySize=auto;html=1;" edge="1" parent="WIyWlLk6GJQsqaUBKTNV-1" source="zztyvqkD1Ys9BvBLfRlU-7" target="zztyvqkD1Ys9BvBLfRlU-9">
          <mxGeometry relative="1" as="geometry" />
        </mxCell>
        <mxCell id="zztyvqkD1Ys9BvBLfRlU-7" value="Step 5: Premium from sale can be added to the vault or sent somewhere else like Badger." style="whiteSpace=wrap;html=1;rounded=1;glass=0;strokeWidth=1;shadow=0;" vertex="1" parent="WIyWlLk6GJQsqaUBKTNV-1">
          <mxGeometry x="160" y="524.5" width="120" height="105.5" as="geometry" />
        </mxCell>
        <mxCell id="zztyvqkD1Ys9BvBLfRlU-9" value="Step 6: After the oToken has reached expiry, either the collateral in the vault can now be pulled or is sent to the otoken buyer." style="whiteSpace=wrap;html=1;rounded=1;glass=0;strokeWidth=1;shadow=0;" vertex="1" parent="WIyWlLk6GJQsqaUBKTNV-1">
          <mxGeometry x="340" y="537.25" width="170" height="92.75" as="geometry" />
        </mxCell>
      </root>
    </mxGraphModel>
  </diagram>
</mxfile>
